HIERARCHY
ROOT Hips
{
	OFFSET 0.000000 89.005402 0.000000
	CHANNELS 6 Xposition Yposition Zposition Xrotation Yrotation Zrotation
	JOINT Spine
	{
		OFFSET 0.116900 10.681000 0.373400
		CHANNELS 3 Xrotation Yrotation Zrotation
		JOINT Spine1
		{
			OFFSET 0.000000 13.840401 0.053500
			CHANNELS 3 Xrotation Yrotation Zrotation
			JOINT Spine2
			{
				OFFSET 0.000000 14.712700 -0.366200
				CHANNELS 3 Xrotation Yrotation Zrotation
				JOINT Neck
				{
					OFFSET 0.000000 35.415497 -3.314200
					CHANNELS 3 Xrotation Yrotation Zrotation
					JOINT Head
					{
						OFFSET 0.000000 16.899200 1.218300
						CHANNELS 3 Xrotation Yrotation Zrotation
						JOINT HeadTop_End
						{
							OFFSET 0.000000 22.206207 2.192500
							CHANNELS 3 Xrotation Yrotation Zrotation
							End Site
							{
								OFFSET 0.000000 22.314178 0.000000
							}
						}
					}
				}
				JOINT LeftShoulder
				{
					OFFSET 12.896400 26.716293 -4.548400
					CHANNELS 3 Xrotation Yrotation Zrotation
					JOINT LeftArm
					{
						OFFSET 19.027000 -4.857010 -1.718400
						CHANNELS 3 Xrotation Yrotation Zrotation
						JOINT LeftForeArm
						{
							OFFSET 24.179897 0.000000 0.000000
							CHANNELS 3 Xrotation Yrotation Zrotation
							JOINT LeftHand
							{
								OFFSET 27.156403 0.000000 0.000000
								CHANNELS 3 Xrotation Yrotation Zrotation
								JOINT LeftHandIndex1
								{
									OFFSET 16.441200 0.000000 0.000000
									CHANNELS 3 Xrotation Yrotation Zrotation
									JOINT LeftHandIndex2
									{
										OFFSET 4.821899 0.000000 0.000000
										CHANNELS 3 Xrotation Yrotation Zrotation
										JOINT LeftHandIndex3
										{
											OFFSET 6.386497 0.000000 0.000000
											CHANNELS 3 Xrotation Yrotation Zrotation
											JOINT LeftHandIndex4
											{
												OFFSET 5.188988 0.000000 0.000000
												CHANNELS 3 Xrotation Yrotation Zrotation
												End Site
												{
													OFFSET -0.178703 5.185913 0.000177
												}
											}
										}
									}
								}
								JOINT LeftHandThumb1
								{
									OFFSET 6.534897 -5.032593 5.900300
									CHANNELS 3 Xrotation Yrotation Zrotation
									JOINT LeftHandThumb2
									{
										OFFSET 3.818176 -2.204422 2.204423
										CHANNELS 3 Xrotation Yrotation Zrotation
										JOINT LeftHandThumb3
										{
											OFFSET 3.252098 -1.877594 1.877601
											CHANNELS 3 Xrotation Yrotation Zrotation
											JOINT LeftHandThumb4
											{
												OFFSET 5.251778 -3.032120 3.032117
												CHANNELS 3 Xrotation Yrotation Zrotation
												End Site
												{
													OFFSET 0.000023 6.780014 0.000000
												}
											}
										}
									}
								}
							}
						}
					}
				}
				JOINT RightShoulder
				{
					OFFSET -12.896300 26.716293 -4.548400
					CHANNELS 3 Xrotation Yrotation Zrotation
					JOINT RightArm
					{
						OFFSET -19.027000 -4.857010 -1.718400
						CHANNELS 3 Xrotation Yrotation Zrotation
						JOINT RightForeArm
						{
							OFFSET -24.179897 0.000000 0.000000
							CHANNELS 3 Xrotation Yrotation Zrotation
							JOINT RightHand
							{
								OFFSET -27.156403 0.000000 0.000000
								CHANNELS 3 Xrotation Yrotation Zrotation
								JOINT RightHandThumb1
								{
									OFFSET -6.591202 -4.852203 5.988100
									CHANNELS 3 Xrotation Yrotation Zrotation
									JOINT RightHandThumb2
									{
										OFFSET -3.818176 -2.204422 2.204423
										CHANNELS 3 Xrotation Yrotation Zrotation
										JOINT RightHandThumb3
										{
											OFFSET -3.252098 -1.877594 1.877601
											CHANNELS 3 Xrotation Yrotation Zrotation
											JOINT RightHandThumb4
											{
												OFFSET -5.251778 -3.032120 3.032117
												CHANNELS 3 Xrotation Yrotation Zrotation
												End Site
												{
													OFFSET -0.000023 6.780014 0.000000
												}
											}
										}
									}
								}
								JOINT RightHandIndex1
								{
									OFFSET -16.029404 0.000000 0.000000
									CHANNELS 3 Xrotation Yrotation Zrotation
									JOINT RightHandIndex2
									{
										OFFSET -5.213303 0.000000 0.000000
										CHANNELS 3 Xrotation Yrotation Zrotation
										JOINT RightHandIndex3
										{
											OFFSET -6.386528 0.000000 0.000000
											CHANNELS 3 Xrotation Yrotation Zrotation
											JOINT RightHandIndex4
											{
												OFFSET -5.189026 0.000000 0.000000
												CHANNELS 3 Xrotation Yrotation Zrotation
												End Site
												{
													OFFSET 0.236702 5.183624 0.001972
												}
											}
										}
									}
								}
							}
						}
					}
				}
			}
		}
	}
	JOINT LeftUpLeg
	{
		OFFSET 14.073000 -7.904099 -1.463000
		CHANNELS 3 Xrotation Yrotation Zrotation
		JOINT LeftLeg
		{
			OFFSET -0.109806 -34.073280 4.093200
			CHANNELS 3 Xrotation Yrotation Zrotation
			JOINT LeftFoot
			{
				OFFSET 0.109806 -29.899420 -6.319000
				CHANNELS 3 Xrotation Yrotation Zrotation
				JOINT LeftToeBase
				{
					OFFSET 1.551100 -14.988700 20.535801
					CHANNELS 3 Xrotation Yrotation Zrotation
					JOINT LeftToe_End
					{
						OFFSET 0.221200 0.570800 13.248301
						CHANNELS 3 Xrotation Yrotation Zrotation
						End Site
						{
							OFFSET 0.000000 13.262435 0.000000
						}
					}
				}
			}
		}
	}
	JOINT RightUpLeg
	{
		OFFSET -13.839300 -7.904099 -1.463000
		CHANNELS 3 Xrotation Yrotation Zrotation
		JOINT RightLeg
		{
			OFFSET 0.109694 -34.073219 4.093300
			CHANNELS 3 Xrotation Yrotation Zrotation
			JOINT RightFoot
			{
				OFFSET -0.109694 -29.899384 -6.319200
				CHANNELS 3 Xrotation Yrotation Zrotation
				JOINT RightToeBase
				{
					OFFSET -1.551100 -14.988700 20.535801
					CHANNELS 3 Xrotation Yrotation Zrotation
					JOINT RightToe_End
					{
						OFFSET -0.221200 0.570900 13.248299
						CHANNELS 3 Xrotation Yrotation Zrotation
						End Site
						{
							OFFSET 0.000000 13.262440 0.000000
						}
					}
				}
			}
		}
	}
}
MOTION
Frames: 5
Frame Time: 0.033333
0.178035 84.225945 0.212696 -3.786163 38.251395 4.526689 8.019075 -1.472868 4.333155 2.551485 -0.529273 0.033447 2.547798 -0.538187 0.036785 -3.038988 -4.244753 2.341874 -8.828885 -19.673219 5.600376 -0.000001 -0.000000 0.000001 3.799267 -0.056068 -12.182872 -18.996479 -6.550834 -69.802956 -0.000004 -15.293349 -0.000005 37.194847 0.772417 0.727433 -0.534375 0.261054 -17.550499 0.608383 2.601567 -26.320356 0.488231 2.343295 -23.535713 -0.000000 0.000000 -0.000002 -1.395953 1.756331 3.377262 6.494743 16.428895 1.706554 -7.491822 -1.347765 12.902585 -0.000000 0.000000 0.000003 2.957671 7.346754 7.311677 -27.297939 10.775784 70.418786 0.000016 18.412597 -0.000020 21.299277 0.366500 3.361291 -2.439341 0.243589 -2.763574 6.815507 -18.242694 -2.425229 -5.635280 -4.574321 -14.514507 -0.000001 0.000002 -0.000001 -0.574404 0.242061 16.805609 0.485287 -2.071780 26.364016 0.389486 -1.866149 23.575894 -0.000003 -0.000000 0.000002 -13.880806 16.499394 4.577715 55.916102 2.833215 0.174368 -2.003268 -0.009099 -5.610859 -38.286724 -0.609353 0.796399 0.000000 0.000001 0.000000 -14.709984 -12.517826 -1.712208 31.210485 -9.231334 -0.660526 -14.984957 -3.894632 -1.290070 -0.000048 0.000003 -0.000002 -0.000000 -0.000000 -0.000000 
2.127723 84.561310 0.245110 -3.396478 36.625213 4.296142 8.087414 -0.881670 3.871956 2.523168 -0.377790 -0.086839 2.520677 -0.386106 -0.084326 -3.155027 -4.186247 2.281057 -8.976946 -19.354803 5.696017 -0.000000 0.000001 0.000000 3.881187 0.709484 -12.170764 -18.531060 -3.520523 -68.647964 -0.000001 -14.096214 0.000008 37.309758 1.464744 0.898720 -0.534374 0.261054 -17.550499 0.608384 2.601567 -26.320354 0.488231 2.343295 -23.535708 0.000000 -0.000001 -0.000001 -1.395953 1.756331 3.377260 6.494742 16.428893 1.706555 -7.491823 -1.347766 12.902578 -0.000001 -0.000001 -0.000001 2.898279 8.083864 7.338400 -27.960530 13.592697 71.326252 -0.000002 20.012456 -0.000005 20.925422 1.218469 3.681641 -2.439342 0.243587 -2.763569 6.815509 -18.242696 -2.425225 -5.635280 -4.574319 -14.514512 -0.000001 -0.000001 0.000001 -0.574405 0.242057 16.805607 0.485287 -2.071781 26.364018 0.389487 -1.866144 23.575897 -0.000002 0.000002 0.000001 -15.958223 14.439433 8.338032 53.296625 1.736682 -0.095607 -2.389947 1.209397 -8.088482 -32.823096 0.107354 -0.179094 0.000000 0.000001 0.000000 -14.032615 -12.657885 -3.329360 30.379035 -8.012373 -0.470506 -14.776537 -2.819281 -0.149516 -0.000056 -0.000001 0.000005 0.000000 -0.000000 -0.000000 
4.096591 84.804153 0.310907 -2.793302 34.786884 3.930467 8.190098 -0.318921 3.369972 2.476364 -0.228503 -0.189662 2.475043 -0.236268 -0.187999 -3.364793 -4.127633 2.227437 -9.357663 -19.041432 5.818633 -0.000000 0.000001 0.000000 3.955586 1.368275 -12.201647 -17.936166 -1.652889 -66.962089 -0.000002 -12.225828 0.000012 38.676974 1.657336 0.705924 -0.534374 0.261053 -17.550496 0.608384 2.601567 -26.320358 0.488231 2.343296 -23.535710 0.000000 -0.000000 -0.000004 -1.395953 1.756331 3.377264 6.494742 16.428893 1.706556 -7.491822 -1.347766 12.902585 -0.000001 -0.000001 0.000000 2.839641 8.821225 7.330806 -28.639519 16.752962 72.436554 -0.000012 22.521464 0.000019 19.994581 2.422718 3.847310 -2.439344 0.243589 -2.763571 6.815507 -18.242691 -2.425228 -5.635279 -4.574322 -14.514507 -0.000000 0.000002 -0.000002 -0.574404 0.242059 16.805609 0.485288 -2.071783 26.364018 0.389490 -1.866139 23.575901 -0.000001 0.000001 -0.000002 -16.525192 12.580100 10.397232 48.242173 0.323089 -0.027835 -6.409379 1.350404 -6.732034 -20.692534 0.849017 -2.541648 -0.000000 -0.000003 0.000000 -13.756443 -12.840960 -4.930163 29.661254 -6.306372 -0.310038 -14.567641 -1.990715 0.846209 -0.000057 0.000008 -0.000004 0.000000 -0.000000 -0.000000 
6.026446 85.129074 0.447873 -2.091989 32.838638 3.505424 8.275072 0.167410 2.868735 2.415748 -0.091323 -0.277202 2.415561 -0.098568 -0.276341 -3.601612 -4.058881 2.189908 -9.815039 -18.671444 5.951347 -0.000000 -0.000000 0.000001 4.018280 1.939103 -12.191722 -17.315955 -0.317200 -65.156180 0.000005 -9.934523 -0.000016 41.049823 1.547462 0.092911 -0.534374 0.261053 -17.550499 0.608384 2.601567 -26.320358 0.488230 2.343296 -23.535707 -0.000000 -0.000000 -0.000003 -1.395952 1.756331 3.377263 6.494742 16.428895 1.706558 -7.491822 -1.347762 12.902585 -0.000001 -0.000001 -0.000002 2.784271 9.529986 7.306896 -29.264506 19.964476 73.709489 0.000003 25.432298 -0.000005 18.818693 3.741982 3.988515 -2.439341 0.243591 -2.763573 6.815510 -18.242696 -2.425226 -5.635277 -4.574325 -14.514509 0.000001 -0.000002 0.000000 -0.574403 0.242060 16.805607 0.485288 -2.071782 26.364016 0.389489 -1.866144 23.575901 -0.000000 -0.000001 -0.000003 -16.267849 10.822287 12.006356 39.853621 -1.828808 0.038142 -8.047871 0.963907 -5.360055 -9.257626 0.579218 -4.831535 0.000000 0.000001 0.000000 -13.402935 -13.129216 -6.383607 28.294506 -4.355478 -0.168178 -13.994766 -1.306896 1.693690 0.000002 -0.000002 -0.000005 -0.000000 0.000000 -0.000000 
7.913723 85.458374 0.651327 -1.381070 30.922947 3.024743 8.229838 0.476568 2.470931 2.340855 0.005618 -0.348608 2.341467 -0.001470 -0.348294 -3.766597 -3.962238 2.195849 -10.129977 -18.132677 6.073786 -0.000000 -0.000001 0.000000 4.052241 2.387030 -12.021579 -16.699594 1.083264 -63.849291 0.000000 -7.354516 0.000019 44.607607 1.218632 -1.176375 -0.534374 0.261052 -17.550499 0.608385 2.601569 -26.320358 0.488230 2.343294 -23.535708 -0.000000 0.000000 -0.000001 -1.395952 1.756330 3.377263 6.494742 16.428893 1.706555 -7.491824 -1.347762 12.902577 0.000000 -0.000000 -0.000001 2.744692 10.054029 7.254742 -29.658348 22.837142 75.075800 -0.000012 28.186121 0.000022 17.878742 4.909309 4.163028 -2.439343 0.243592 -2.763572 6.815510 -18.242701 -2.425227 -5.635277 -4.574323 -14.514502 -0.000001 0.000003 -0.000002 -0.574405 0.242065 16.805605 0.485288 -2.071781 26.364021 0.389488 -1.866145 23.575899 -0.000000 -0.000003 -0.000005 -15.551050 10.058802 13.444355 29.476597 -3.438425 0.028795 -6.520480 0.566031 -4.819800 -4.096164 0.069734 -2.418938 -0.000000 -0.000002 0.000001 -12.985453 -13.559168 -7.651446 26.550890 -2.195065 -0.041475 -13.228232 -0.844895 2.450715 -0.000007 -0.000003 0.000003 0.000000 -0.000001 0.000000 
